<?xml version="1.0" encoding="utf-8"?><svg width="auto" height="1720" style="overflow:visible " version="1.1" xmlns="http://www.w3.org/2000/svg"><rect x="20" y="20" width="200" height="40" style="fill:white;stroke:black;stroke-width:1" /><text x="30" y="30" font-size="10" style="fill:blue">circuitos</text><rect x="240" y="20" width="200" height="40" style="fill:white;stroke:black;stroke-width:1" /><text x="250" y="30" font-size="10" style="fill:blue">circuito</text><path d="M220 40 C240 40 220 40 240 40" style="fill:transparent;stroke:black" /><rect x="460" y="20" width="200" height="40" style="fill:white;stroke:black;stroke-width:1" /><text x="470" y="30" font-size="10" style="fill:blue">nombre</text><path d="M440 40 C460 40 440 40 460 40" style="fill:transparent;stroke:black" /><rect x="526" y="20" width="137" height="40" style="fill:green;stroke:black;stroke-width:1" /><text x="536" y="30" font-size="8" style="fill:white">Shanghai International Circuit</text><rect x="460" y="70" width="200" height="40" style="fill:white;stroke:black;stroke-width:1" /><text x="470" y="80" font-size="10" style="fill:blue">longitud_circuito</text><path d="M440 40 C460 40 440 90 460 90" style="fill:transparent;stroke:black" /><text x="470" y="90" font-size="8" style="fill:black">unidades: km</text><rect x="526" y="70" width="137" height="40" style="fill:green;stroke:black;stroke-width:1" /><text x="536" y="80" font-size="8" style="fill:white">5451</text><rect x="460" y="120" width="200" height="40" style="fill:white;stroke:black;stroke-width:1" /><text x="470" y="130" font-size="10" style="fill:blue">anchura_media</text><path d="M440 40 C460 40 440 140 460 140" style="fill:transparent;stroke:black" /><text x="470" y="140" font-size="8" style="fill:black">unidades: m</text><rect x="526" y="120" width="137" height="40" style="fill:green;stroke:black;stroke-width:1" /><text x="536" y="130" font-size="8" style="fill:white">14</text><rect x="460" y="170" width="200" height="40" style="fill:white;stroke:black;stroke-width:1" /><text x="470" y="180" font-size="10" style="fill:blue">fecha</text><path d="M440 40 C460 40 440 190 460 190" style="fill:transparent;stroke:black" /><text x="470" y="190" font-size="8" style="fill:black">año: 2024</text><rect x="526" y="170" width="137" height="40" style="fill:green;stroke:black;stroke-width:1" /><text x="536" y="180" font-size="8" style="fill:white">21 de abril</text><rect x="460" y="220" width="200" height="40" style="fill:white;stroke:black;stroke-width:1" /><text x="470" y="230" font-size="10" style="fill:blue">hora</text><path d="M440 40 C460 40 440 240 460 240" style="fill:transparent;stroke:black" /><rect x="526" y="220" width="137" height="40" style="fill:green;stroke:black;stroke-width:1" /><text x="536" y="230" font-size="8" style="fill:white">9:00</text><rect x="460" y="270" width="200" height="40" style="fill:white;stroke:black;stroke-width:1" /><text x="470" y="280" font-size="10" style="fill:blue">vueltas</text><path d="M440 40 C460 40 440 290 460 290" style="fill:transparent;stroke:black" /><rect x="526" y="270" width="137" height="40" style="fill:green;stroke:black;stroke-width:1" /><text x="536" y="280" font-size="8" style="fill:white">56</text><rect x="460" y="320" width="200" height="40" style="fill:white;stroke:black;stroke-width:1" /><text x="470" y="330" font-size="10" style="fill:blue">localidad</text><path d="M440 40 C460 40 440 340 460 340" style="fill:transparent;stroke:black" /><rect x="526" y="320" width="137" height="40" style="fill:green;stroke:black;stroke-width:1" /><text x="536" y="330" font-size="8" style="fill:white">Shanghai</text><rect x="460" y="370" width="200" height="40" style="fill:white;stroke:black;stroke-width:1" /><text x="470" y="380" font-size="10" style="fill:blue">país</text><path d="M440 40 C460 40 440 390 460 390" style="fill:transparent;stroke:black" /><rect x="526" y="370" width="137" height="40" style="fill:green;stroke:black;stroke-width:1" /><text x="536" y="380" font-size="8" style="fill:white">China</text><rect x="460" y="420" width="200" height="40" style="fill:white;stroke:black;stroke-width:1" /><text x="470" y="430" font-size="10" style="fill:blue">bibliografía</text><path d="M440 40 C460 40 440 440 460 440" style="fill:transparent;stroke:black" /><rect x="680" y="420" width="200" height="40" style="fill:white;stroke:black;stroke-width:1" /><text x="690" y="430" font-size="10" style="fill:blue">referencia</text><path d="M660 440 C680 440 660 440 680 440" style="fill:transparent;stroke:black" /><rect x="746" y="420" width="137" height="40" style="fill:green;stroke:black;stroke-width:1" /><text x="756" y="430" font-size="8" style="fill:white">https://www.formula1.com/en/racing/2024/china/circuit</text><rect x="680" y="470" width="200" height="40" style="fill:white;stroke:black;stroke-width:1" /><text x="690" y="480" font-size="10" style="fill:blue">referencia</text><path d="M660 440 C680 440 660 490 680 490" style="fill:transparent;stroke:black" /><rect x="746" y="470" width="137" height="40" style="fill:green;stroke:black;stroke-width:1" /><text x="756" y="480" font-size="8" style="fill:white">https://www.travelchinaguide.com/attraction/shanghai/international-circuit.htm</text><rect x="680" y="520" width="200" height="40" style="fill:white;stroke:black;stroke-width:1" /><text x="690" y="530" font-size="10" style="fill:blue">referencia</text><path d="M660 440 C680 440 660 540 680 540" style="fill:transparent;stroke:black" /><rect x="746" y="520" width="137" height="40" style="fill:green;stroke:black;stroke-width:1" /><text x="756" y="530" font-size="8" style="fill:white">https://www.formula1.com/en/racing/2024</text><rect x="680" y="570" width="200" height="40" style="fill:white;stroke:black;stroke-width:1" /><text x="690" y="580" font-size="10" style="fill:blue">referencia</text><path d="M660 440 C680 440 660 590 680 590" style="fill:transparent;stroke:black" /><rect x="746" y="570" width="137" height="40" style="fill:green;stroke:black;stroke-width:1" /><text x="756" y="580" font-size="8" style="fill:white">https://www.worldtimebuddy.com/</text><rect x="680" y="620" width="200" height="40" style="fill:white;stroke:black;stroke-width:1" /><text x="690" y="630" font-size="10" style="fill:blue">referencia</text><path d="M660 440 C680 440 660 640 680 640" style="fill:transparent;stroke:black" /><rect x="746" y="620" width="137" height="40" style="fill:green;stroke:black;stroke-width:1" /><text x="756" y="630" font-size="8" style="fill:white">https://www.randymajors.org/elevation-on-google-maps</text><rect x="460" y="720" width="200" height="40" style="fill:white;stroke:black;stroke-width:1" /><text x="470" y="730" font-size="10" style="fill:blue">fotografías</text><path d="M440 40 C460 40 440 740 460 740" style="fill:transparent;stroke:black" /><rect x="680" y="720" width="200" height="40" style="fill:white;stroke:black;stroke-width:1" /><text x="690" y="730" font-size="10" style="fill:blue">foto</text><path d="M660 740 C680 740 660 740 680 740" style="fill:transparent;stroke:black" /><rect x="746" y="720" width="137" height="40" style="fill:green;stroke:black;stroke-width:1" /><text x="756" y="730" font-size="8" style="fill:white">China_Circuit.png</text><rect x="680" y="770" width="200" height="40" style="fill:white;stroke:black;stroke-width:1" /><text x="690" y="780" font-size="10" style="fill:blue">foto</text><path d="M660 740 C680 740 660 790 680 790" style="fill:transparent;stroke:black" /><rect x="746" y="770" width="137" height="40" style="fill:green;stroke:black;stroke-width:1" /><text x="756" y="780" font-size="8" style="fill:white">Shanghai_Hairpin.png</text><rect x="680" y="820" width="200" height="40" style="fill:white;stroke:black;stroke-width:1" /><text x="690" y="830" font-size="10" style="fill:blue">foto</text><path d="M660 740 C680 740 660 840 680 840" style="fill:transparent;stroke:black" /><rect x="746" y="820" width="137" height="40" style="fill:green;stroke:black;stroke-width:1" /><text x="756" y="830" font-size="8" style="fill:white">Shanghai_Start.png</text><rect x="460" y="920" width="200" height="40" style="fill:white;stroke:black;stroke-width:1" /><text x="470" y="930" font-size="10" style="fill:blue">vídeos</text><path d="M440 40 C460 40 440 940 460 940" style="fill:transparent;stroke:black" /><rect x="680" y="920" width="200" height="40" style="fill:white;stroke:black;stroke-width:1" /><text x="690" y="930" font-size="10" style="fill:blue">vídeo</text><path d="M660 940 C680 940 660 940 680 940" style="fill:transparent;stroke:black" /><rect x="746" y="920" width="137" height="40" style="fill:green;stroke:black;stroke-width:1" /><text x="756" y="930" font-size="8" style="fill:white">Verstappen vs Vettel At The Hairpin - Chinese Grand Prix.mp4</text><rect x="460" y="1020" width="200" height="40" style="fill:white;stroke:black;stroke-width:1" /><text x="470" y="1030" font-size="10" style="fill:blue">coordenadas</text><path d="M440 40 C460 40 440 1040 460 1040" style="fill:transparent;stroke:black" /><rect x="680" y="1020" width="200" height="40" style="fill:white;stroke:black;stroke-width:1" /><text x="690" y="1030" font-size="10" style="fill:blue">latitud</text><path d="M660 1040 C680 1040 660 1040 680 1040" style="fill:transparent;stroke:black" /><rect x="746" y="1020" width="137" height="40" style="fill:green;stroke:black;stroke-width:1" /><text x="756" y="1030" font-size="8" style="fill:white">31.336758</text><rect x="680" y="1070" width="200" height="40" style="fill:white;stroke:black;stroke-width:1" /><text x="690" y="1080" font-size="10" style="fill:blue">longitud</text><path d="M660 1040 C680 1040 660 1090 680 1090" style="fill:transparent;stroke:black" /><rect x="746" y="1070" width="137" height="40" style="fill:green;stroke:black;stroke-width:1" /><text x="756" y="1080" font-size="8" style="fill:white">121.221009</text><rect x="680" y="1120" width="200" height="40" style="fill:white;stroke:black;stroke-width:1" /><text x="690" y="1130" font-size="10" style="fill:blue">altitud</text><path d="M660 1040 C680 1040 660 1140 680 1140" style="fill:transparent;stroke:black" /><text x="690" y="1140" font-size="8" style="fill:black">unidades: m</text><rect x="746" y="1120" width="137" height="40" style="fill:green;stroke:black;stroke-width:1" /><text x="756" y="1130" font-size="8" style="fill:white">6</text><rect x="460" y="1220" width="200" height="40" style="fill:white;stroke:black;stroke-width:1" /><text x="470" y="1230" font-size="10" style="fill:blue">tramos</text><path d="M440 40 C460 40 440 1240 460 1240" style="fill:transparent;stroke:black" /><rect x="680" y="1220" width="200" height="40" style="fill:white;stroke:black;stroke-width:1" /><text x="690" y="1230" font-size="10" style="fill:blue">tramo</text><path d="M660 1240 C680 1240 660 1240 680 1240" style="fill:transparent;stroke:black" /><rect x="900" y="1220" width="200" height="40" style="fill:white;stroke:black;stroke-width:1" /><text x="910" y="1230" font-size="10" style="fill:blue">distancia</text><path d="M880 1240 C900 1240 880 1240 900 1240" style="fill:transparent;stroke:black" /><text x="910" y="1240" font-size="8" style="fill:black">unidades: m</text><rect x="966" y="1220" width="137" height="40" style="fill:green;stroke:black;stroke-width:1" /><text x="976" y="1230" font-size="8" style="fill:white">321,06</text><rect x="900" y="1270" width="200" height="40" style="fill:white;stroke:black;stroke-width:1" /><text x="910" y="1280" font-size="10" style="fill:blue">coordenadas</text><path d="M880 1240 C900 1240 880 1290 900 1290" style="fill:transparent;stroke:black" /><rect x="1120" y="1270" width="200" height="40" style="fill:white;stroke:black;stroke-width:1" /><text x="1130" y="1280" font-size="10" style="fill:blue">latitud</text><path d="M1100 1290 C1120 1290 1100 1290 1120 1290" style="fill:transparent;stroke:black" /><rect x="1120" y="1320" width="200" height="40" style="fill:white;stroke:black;stroke-width:1" /><text x="1130" y="1330" font-size="10" style="fill:blue">longitud</text><path d="M1100 1290 C1120 1290 1100 1340 1120 1340" style="fill:transparent;stroke:black" /><rect x="1120" y="1370" width="200" height="40" style="fill:white;stroke:black;stroke-width:1" /><text x="1130" y="1380" font-size="10" style="fill:blue">altitud</text><path d="M1100 1290 C1120 1290 1100 1390 1120 1390" style="fill:transparent;stroke:black" /><text x="1130" y="1390" font-size="8" style="fill:black">unidades: m</text><rect x="900" y="1470" width="200" height="40" style="fill:white;stroke:black;stroke-width:1" /><text x="910" y="1480" font-size="10" style="fill:blue">sector</text><path d="M880 1240 C900 1240 880 1490 900 1490" style="fill:transparent;stroke:black" /><rect x="966" y="1470" width="137" height="40" style="fill:green;stroke:black;stroke-width:1" /><text x="976" y="1480" font-size="8" style="fill:white">1</text></svg>