<?xml version='1.0' encoding='utf-8'?>
<svg xmlns="http://www.w3.org/2000/svg" height="1000" width="534.228"><polyline points="10,750.0 10,444.71006 18.547,444.71006 27.630000000000003,499.07931 143.213,492.07931 152.965,477.74498000000006 161.397,466.93773 166.14999999999998,418.96433 171.81699999999998,418.96627 177.87499999999997,411.3271199999999 183.38899999999998,407.3271199999999 186.08299999999997,470.34676 190.85299999999998,475.10514 193.7,444.8342 217.278,467.64302999999995 241.114,415.94021 249.644,484.0614300000001 253.38,445.64995999999996 263.315,425.64995999999996 269.069,452.79879000000005 274.156,417.70219 279.681,400.40227000000004 289.584,464.54606 295.166,414.06143 304.621,444.06143 314.15099999999995,414.06143 338.69199999999995,441.49804000000006 345.6449999999999,402.91517 348.61299999999994,456.55899999999997 350.66599999999994,451.19265000000007 367.1859999999999,475.78108 374.67799999999994,482.39343999999994 404.22999999999996,489.11552 408.919,441.32371 415.042,401.80524 418.508,403.81524 422.09299999999996,401.19607999999994 427.075,403.81902 430.226,403.81704 435.768,467.97689 440.39799999999997,443.73795999999993 448.578,422.18214 456.323,488.12861 464.33,488.12861 493.337,418.96848 524.228,409.80434 524.228,750.0 10,750.0" style="fill:none;stroke:green;stroke-width:5" /></svg>