<?xml version='1.0' encoding='utf-8'?>
<svg xmlns="http://www.w3.org/2000/svg" height="700" width="534.228"><polyline points="10,525.0 10,144.71006 18.547,144.71006 27.630000000000003,199.07931000000002 143.213,192.07931000000002 152.965,177.74498000000006 161.397,166.93773 166.14999999999998,118.96433000000002 171.81699999999998,118.96627000000001 177.87499999999997,111.32711999999992 183.38899999999998,107.32711999999992 186.08299999999997,170.34676000000002 190.85299999999998,175.10514 193.7,144.8342 217.278,167.64302999999995 241.114,115.94020999999998 249.644,184.0614300000001 253.38,145.64995999999996 263.315,125.64995999999996 269.069,152.79879000000005 274.156,117.70218999999997 279.681,100.40227000000004 289.584,164.54606 295.166,114.06142999999997 304.621,144.06142999999997 314.15099999999995,114.06142999999997 338.69199999999995,141.49804000000006 345.6449999999999,102.91516999999999 348.61299999999994,156.55899999999997 350.66599999999994,151.19265000000007 367.1859999999999,175.78107999999997 374.67799999999994,182.39343999999994 404.22999999999996,189.11552 408.919,141.32371 415.042,101.80524000000003 418.508,103.81524000000002 422.09299999999996,101.19607999999994 427.075,103.81902000000002 430.226,103.81704000000002 435.768,167.97689000000003 440.39799999999997,143.73795999999993 448.578,122.18214 456.323,188.12860999999998 464.33,188.12860999999998 493.337,118.96848 524.228,109.80434000000002 524.228,525.0 10,525.0" style="fill:none;stroke:green;stroke-width:5" /></svg>